<svg xmlns="http://www.w3.org/2000/svg" xmlns:xlink="http://www.w3.org/1999/xlink" xmlns:lucid="lucid" width="1949.17" height="1142"><g transform="translate(-539.2506510416666 1261)" lucid:page-tab-id="0_0"><path d="M720-1254a6 6 0 0 1 6-6h1528a6 6 0 0 1 6 6v1128a6 6 0 0 1-6 6H726a6 6 0 0 1-6-6z" stroke="#000" stroke-width="2" fill-opacity="0"/><use xlink:href="#a" transform="matrix(1,0,0,1,728,-1252) translate(681.76953125 29.708333333333332)"/><path d="M619.75-790.25c0 10.9-8.84 19.75-19.75 19.75-10.9 0-19.75-8.84-19.75-19.75 0-10.9 8.84-19.75 19.75-19.75 10.9 0 19.75 8.84 19.75 19.75z" stroke="#000" stroke-width="2" fill="#fff"/><path d="M600-770.5v49.3a20.7 20.7 0 0 0 3.2 11.07L640-652m-40-63.2L560-652m0-98.75h80" stroke="#000" stroke-width="2" fill="none"/><path d="M560-804a6 6 0 0 1 6-6h68a6 6 0 0 1 6 6v168a6 6 0 0 1-6 6h-68a6 6 0 0 1-6-6z" fill="none"/><use xlink:href="#b" transform="matrix(1,0,0,1,480,-652) translate(60.25065104166668 21.52777777777778)"/><path d="M2399.75-790.25c0 10.9-8.84 19.75-19.75 19.75-10.9 0-19.75-8.84-19.75-19.75 0-10.9 8.84-19.75 19.75-19.75 10.9 0 19.75 8.84 19.75 19.75z" stroke="#000" stroke-width="2" fill="#fff"/><path d="M2380-770.5v49.3a20.7 20.7 0 0 0 3.2 11.07L2420-652m-40-63.2l-40 63.2m0-98.75h80" stroke="#000" stroke-width="2" fill="none"/><path d="M2340-804a6 6 0 0 1 6-6h68a6 6 0 0 1 6 6v168a6 6 0 0 1-6 6h-68a6 6 0 0 1-6-6z" fill="none"/><use xlink:href="#c" transform="matrix(1,0,0,1,2260,-652) translate(12.955729166666643 17.46701388888889)"/><use xlink:href="#d" transform="matrix(1,0,0,1,2260,-652) translate(161.41059027777783 17.46701388888889)"/><use xlink:href="#e" transform="matrix(1,0,0,1,2260,-652) translate(187.41753472222223 17.46701388888889)"/><path d="M998-1080c0 33.14-35.82 60-80 60s-80-26.86-80-60 35.82-60 80-60 80 26.86 80 60z" stroke="#000" stroke-width="2" fill="#fff"/><use xlink:href="#f" transform="matrix(1,0,0,1,837.9999828401287,-1140) translate(16.772265624999996 57.466875)"/><use xlink:href="#g" transform="matrix(1,0,0,1,837.9999828401287,-1140) translate(48.241503906249996 57.466875)"/><use xlink:href="#h" transform="matrix(1,0,0,1,837.9999828401287,-1140) translate(123.228203125 57.466875)"/><use xlink:href="#i" transform="matrix(1,0,0,1,837.9999828401287,-1140) translate(45.07005859374999 77.72162109375)"/><path d="M1562-880c0 33.14-35.82 60-80 60s-80-26.86-80-60 35.82-60 80-60 80 26.86 80 60z" stroke="#000" stroke-width="2" fill="#fff"/><use xlink:href="#f" transform="matrix(1,0,0,1,1402.0000171598713,-940) translate(31.705849609375 64.966875)"/><use xlink:href="#j" transform="matrix(1,0,0,1,1402.0000171598713,-940) translate(63.175087890625 64.966875)"/><path d="M1280-1079.2c0 33.12-35.82 60-80 60s-80-26.88-80-60c0-33.15 35.82-60 80-60s80 26.85 80 60z" stroke="#000" stroke-width="2" fill="#fff"/><use xlink:href="#k" transform="matrix(1,0,0,1,1120,-1139.2142187499999) translate(24.884790039062487 64.966875)"/><use xlink:href="#l" transform="matrix(1,0,0,1,1120,-1139.2142187499999) translate(74.0912353515625 64.966875)"/><path d="M1844-1080c0 33.14-35.82 60-80 60s-80-26.86-80-60 35.82-60 80-60 80 26.86 80 60z" stroke="#000" stroke-width="2" fill="#fff"/><use xlink:href="#m" transform="matrix(1,0,0,1,1684.0000343197426,-1140) translate(17.98199218749999 64.966875)"/><use xlink:href="#n" transform="matrix(1,0,0,1,1684.0000343197426,-1140) translate(91.8733984375 64.966875)"/><path d="M640.5-752.6l186.98-311.54" stroke="#5e5e5e" stroke-width="2" fill="none"/><path d="M639.3-748.68l-1.68-1 .04-.07h2.28zm2.06-3.45l-1.36 2.27v-1.9h-1.14l.83-1.37z" stroke="#5e5e5e" stroke-width=".05" fill="#5e5e5e"/><path d="M835.34-1077.22l-3.37 14.6-7.95-4.76z" stroke="#5e5e5e" stroke-width="2" fill="#5e5e5e"/><path d="M1562-1080c0 33.14-35.82 60-80 60s-80-26.86-80-60 35.82-60 80-60 80 26.86 80 60z" stroke="#000" stroke-width="2" fill="#fff"/><use xlink:href="#f" transform="matrix(1,0,0,1,1402.0000171598713,-1140) translate(35.008076171875 64.966875)"/><use xlink:href="#o" transform="matrix(1,0,0,1,1402.0000171598713,-1140) translate(66.47731445312499 64.966875)"/><path d="M1118-1079.2h-3.02m-4.02 0h-6.03m-4.02 0h-6.02m-4.02 0h-6.03m-4.02 0h-6.02m-4.02 0h-6.04m-4.02 0h-6.03m-4.02 0h-6.03m-4.02 0h-6.03m-4.02 0h-6.04m-4 0h-3.02" stroke="#5e5e5e" stroke-width="2" fill="none"/><path d="M1119-1079.23v.42l.02.56h-1.05v-1.95h1.06z" stroke="#5e5e5e" stroke-width=".05" fill="#5e5e5e"/><path d="M1002.2-1079.2l14.28-4.65v9.27z" stroke="#5e5e5e" stroke-width="2" fill="#5e5e5e"/><path d="M1400-1080h-3.02m-4.02 0h-6.03m-4.02 0h-6.02m-4.02 0h-6.03m-4.02 0h-6.02m-4.02 0h-6.03m-4.02 0h-6.02m-4.03 0h-6.03m-4.02 0h-6.03m-4.02 0h-6.03m-4.02 0h-3.02" stroke="#5e5e5e" stroke-width="2" fill="none"/><path d="M1401-1080v.4l.02.57h-1.05v-1.94h1.06z" stroke="#5e5e5e" stroke-width=".05" fill="#5e5e5e"/><path d="M1284.22-1080l14.26-4.63v9.27z" stroke="#5e5e5e" stroke-width="2" fill="#5e5e5e"/><path d="M1482-1018v2.92m0 3.9v5.85m0 3.9v5.85m0 3.9v5.85m0 3.9v5.85m0 3.9v5.85m0 3.9v2.93" stroke="#5e5e5e" stroke-width="2" fill="none"/><path d="M1482-1019H1482.96v1.03h-1.94v-1.06z" stroke="#5e5e5e" stroke-width=".05" fill="#5e5e5e"/><path d="M1482-944.24l-4.63-14.26h9.27z" stroke="#5e5e5e" stroke-width="2" fill="#5e5e5e"/><path d="M1682-1080h-3.02m-4.02 0h-6.03m-4.02 0h-6.02m-4 0h-6.04m-4.02 0h-6.03m-4.03 0h-6.03m-4.02 0h-6.03m-4.03 0h-6.03m-4.02 0h-6.03m-4.03 0h-6.03m-4.02 0h-3.02" stroke="#5e5e5e" stroke-width="2" fill="none"/><path d="M1683-1080v.4l.02.57h-1.05v-1.94h1.06z" stroke="#5e5e5e" stroke-width=".05" fill="#5e5e5e"/><path d="M1566.24-1080l14.26-4.63v9.27z" stroke="#5e5e5e" stroke-width="2" fill="#5e5e5e"/><path d="M900-520c0 33.14-35.82 60-80 60s-80-26.86-80-60 35.82-60 80-60 80 26.86 80 60z" stroke="#000" stroke-width="2" fill="#fff"/><use xlink:href="#p" transform="matrix(1,0,0,1,740,-580) translate(17.274956054687486 64.966875)"/><use xlink:href="#n" transform="matrix(1,0,0,1,740,-580) translate(92.5804345703125 64.966875)"/><path d="M640.4-750.83L731.72-537" stroke="#5e5e5e" stroke-width="2" fill="none"/><path d="M641.3-751.2l-1.3.57v-1.12h-1.06l-1.02-2.38 1.8-.76z" stroke="#5e5e5e" stroke-width=".05" fill="#5e5e5e"/><path d="M737.73-522.98l-9.87-11.3 8.53-3.64z" stroke="#5e5e5e" stroke-width="2" fill="#5e5e5e"/><path d="M637.6-752.28l472.8-292.17M637.63-752.3l-3.42 2.13" stroke="#5e5e5e" stroke-width="2" fill="none"/><path d="M1123.4-1052.47l-9.7 11.44-4.88-7.9z" stroke="#5e5e5e" stroke-width="2" fill="#5e5e5e"/><path d="M1296.55-1114a6 6 0 0 1 6-6h76.9a6 6 0 0 1 6 6v14.14a6 6 0 0 1-6 6h-76.9a6 6 0 0 1-6-6z" fill="none"/><use xlink:href="#q" transform="matrix(1,0,0,1,1301.5516492049355,-1115) translate(0 13.350260416666668)"/><path d="M1578.55-1114a6 6 0 0 1 6-6h76.9a6 6 0 0 1 6 6v14.14a6 6 0 0 1-6 6h-76.9a6 6 0 0 1-6-6z" fill="none"/><use xlink:href="#q" transform="matrix(1,0,0,1,1583.5516663648068,-1115) translate(0 13.350260416666668)"/><path d="M998-720c0 33.14-35.82 60-80 60s-80-26.86-80-60 35.82-60 80-60 80 26.86 80 60z" stroke="#000" stroke-width="2" fill="#fff"/><use xlink:href="#r" transform="matrix(1,0,0,1,837.9999828401287,-780) translate(27.11215820312499 64.966875)"/><use xlink:href="#s" transform="matrix(1,0,0,1,837.9999828401287,-780) translate(79.5799609375 64.966875)"/><path d="M641-751.6l177.73 28.66" stroke="#5e5e5e" stroke-width="2" fill="none"/><path d="M641.17-752.55l-.3 1.93-.87-.14v-1h-3.04l.23-1.43z" stroke="#5e5e5e" stroke-width=".05" fill="#5e5e5e"/><path d="M833.8-720.5l-14.82 2.3 1.48-9.16z" stroke="#5e5e5e" stroke-width="2" fill="#5e5e5e"/><path d="M1380-994a6 6 0 0 1 6-6h79.42a6 6 0 0 1 6 6v14.14a6 6 0 0 1-6 6H1386a6 6 0 0 1-6-6z" fill="none"/><use xlink:href="#t" transform="matrix(1,0,0,1,1385,-995) translate(0 13.350260416666668)"/><path d="M760-634a6 6 0 0 1 6-6h79.42a6 6 0 0 1 6 6v14.14a6 6 0 0 1-6 6H766a6 6 0 0 1-6-6z" fill="none"/><use xlink:href="#t" transform="matrix(1,0,0,1,765,-635) translate(0 13.350260416666668)"/><path d="M820.78-581.62l2.26-1.8m3-2.4l4.52-3.6m3-2.38l4.52-3.6m3-2.4l4.52-3.58m3-2.4l4.53-3.6m3-2.38l4.52-3.6m3-2.4l4.52-3.58m3-2.4l4.52-3.6m3-2.38l4.5-3.6m3.02-2.4l4.52-3.58m3-2.4l4.52-3.6m3-2.38l2.26-1.8" stroke="#5e5e5e" stroke-width="2" fill="none"/><path d="M821.34-580.96L820-581h-.92l-.68.03 1.8-1.43z" stroke="#5e5e5e" stroke-width=".05" fill="#5e5e5e"/><path d="M915.47-657l-8.28 12.53-5.78-7.26z" stroke="#5e5e5e" stroke-width="2" fill="#5e5e5e"/><path d="M918.76-781.64l2.3-1.93m3.05-2.57l4.58-3.85m3.06-2.56l4.58-3.85m3.05-2.58l4.58-3.85m3.05-2.56l4.58-3.85m3.05-2.56l4.58-3.86m3.06-2.57l4.58-3.85m3.05-2.57l4.57-3.85m3.05-2.57l4.58-3.85m3.05-2.57l4.58-3.84m3.05-2.57l4.58-3.86m3.05-2.57l4.6-3.85m3.04-2.56l4.58-3.86m3.06-2.56l4.57-3.86m3.06-2.56l4.6-3.85m3.04-2.57l4.58-3.85m3.05-2.57l4.58-3.85m3.05-2.57l4.58-3.85m3.05-2.56l4.58-3.85m3.06-2.58l4.58-3.85m3.05-2.57l4.57-3.85m3.05-2.56l4.58-3.87m3.05-2.56l4.58-3.85m3.05-2.57l4.58-3.85m3.05-2.57l4.6-3.85m3.04-2.57l4.58-3.84m3.06-2.57l4.57-3.86m3.06-2.57l4.6-3.85m3.04-2.57l4.57-3.85m3.07-2.57l4.58-3.85m3.05-2.56l4.58-3.86m3.05-2.56l4.58-3.85m3.06-2.57l4.58-3.85m3.05-2.57l4.57-3.85m3.05-2.56l4.58-3.85m3.05-2.58l2.3-1.92" stroke="#5e5e5e" stroke-width="2" fill="none"/><path d="M919.38-780.96L918-781h-.92l-.63.03 1.7-1.44z" stroke="#5e5e5e" stroke-width=".05" fill="#5e5e5e"/><path d="M1197.52-1016.13l-7.93 12.73-5.98-7.1z" stroke="#5e5e5e" stroke-width="2" fill="#5e5e5e"/><path d="M999.8-719.4l2.42 1.8m3.2 2.43l4.85 3.62m3.22 2.4l4.82 3.64m3.2 2.4l4.84 3.62m3.22 2.42l4.83 3.62m3.23 2.42l4.83 3.62m3.22 2.4l4.83 3.63m3.23 2.42l4.83 3.62m3.22 2.42l2.42 1.8" stroke="#5e5e5e" stroke-width="2" fill="none"/><path d="M1000.4-720.16l-1.16 1.55-.28-.2.04-1.2v-.4l-.03-.85z" stroke="#5e5e5e" stroke-width=".05" fill="#5e5e5e"/><path d="M1076.4-661.94l-14.18-4.85 5.56-7.4z" stroke="#5e5e5e" stroke-width="2" fill="#5e5e5e"/><path d="M1013.3-754a6 6 0 0 1 6-6h79.4a6 6 0 0 1 6 6v14.14a6 6 0 0 1-6 6h-79.4a6 6 0 0 1-6-6z" fill="none"/><use xlink:href="#t" transform="matrix(1,0,0,1,1018.288611211731,-755) translate(0 13.350260416666668)"/><path d="M998-283.07c0 33.14-35.82 60-80 60s-80-26.86-80-60 35.82-60 80-60 80 26.86 80 60z" stroke="#000" stroke-width="2" fill="#fff"/><use xlink:href="#u" transform="matrix(1,0,0,1,837.9999828401287,-343.07140625) translate(42.25826171874999 57.466875)"/><use xlink:href="#v" transform="matrix(1,0,0,1,837.9999828401287,-343.07140625) translate(88.56299804687501 57.466875)"/><use xlink:href="#w" transform="matrix(1,0,0,1,837.9999828401287,-343.07140625) translate(34.926337890624986 77.72162109375)"/><path d="M1764.9-1018.55l2.66 1.37m3.57 1.8l5.35 2.73m3.57 1.82l5.34 2.72m3.56 1.8l5.35 2.73m3.57 1.82l5.35 2.72m3.57 1.8l5.33 2.74m3.57 1.82l5.35 2.73m3.56 1.8l5.36 2.74m3.57 1.8l5.35 2.72m3.56 1.82l5.35 2.72m3.56 1.82l5.34 2.72m3.57 1.82l5.35 2.72m3.56 1.8l5.35 2.74m3.57 1.8l5.35 2.74m3.56 1.8l5.36 2.73m3.56 1.82l5.35 2.72m3.57 1.8l2.67 1.37" stroke="#5e5e5e" stroke-width="2" fill="none"/><path d="M1764-1019H1765.15l-.7 1.33-2.75-1.4z" stroke="#5e5e5e" stroke-width=".05" fill="#5e5e5e"/><path d="M1921.12-939l-14.82-2.35 4.2-8.26z" stroke="#5e5e5e" stroke-width="2" fill="#5e5e5e"/><path d="M1014.55-1114a6 6 0 0 1 6-6h76.9a6 6 0 0 1 6 6v14.14a6 6 0 0 1-6 6h-76.9a6 6 0 0 1-6-6z" fill="none"/><use xlink:href="#q" transform="matrix(1,0,0,1,1019.5516320450644,-1115) translate(0 13.350260416666668)"/><path d="M2004-876.54c0 33.14-35.82 60-80 60s-80-26.86-80-60c0-33.13 35.82-60 80-60s80 26.87 80 60z" stroke="#000" stroke-width="2" fill="#fff"/><use xlink:href="#x" transform="matrix(1,0,0,1,1844.0000343197426,-936.5357031249999) translate(26.61764160156249 64.966875)"/><use xlink:href="#y" transform="matrix(1,0,0,1,1844.0000343197426,-936.5357031249999) translate(78.7911865234375 64.966875)"/><path d="M1844-994a6 6 0 0 1 6-6h79.42a6 6 0 0 1 6 6v14.14a6 6 0 0 1-6 6H1850a6 6 0 0 1-6-6z" fill="none"/><use xlink:href="#t" transform="matrix(1,0,0,1,1849.0000343197426,-995) translate(0 13.350260416666668)"/><path d="M924.4-520.14a6 6 0 0 1 6-6h79.42a6 6 0 0 1 6 6V-506a6 6 0 0 1-6 6H930.4a6 6 0 0 1-6-6z" fill="none"/><use xlink:href="#t" transform="matrix(1,0,0,1,929.3918924617311,-521.1428125) translate(0 13.350260416666668)"/><path d="M2120-430c0 33.14-35.82 60-80 60s-80-26.86-80-60 35.82-60 80-60 80 26.86 80 60z" stroke="#000" stroke-width="2" fill="#fff"/><use xlink:href="#r" transform="matrix(1,0,0,1,1960,-490) translate(27.11215820312499 64.966875)"/><use xlink:href="#s" transform="matrix(1,0,0,1,1960,-490) translate(79.5799609375 64.966875)"/><path d="M2186.85-220c0 33.14-35.82 60-80 60-44.2 0-80-26.86-80-60s35.8-60 80-60c44.18 0 80 26.86 80 60z" stroke="#000" stroke-width="2" fill="#fff"/><use xlink:href="#z" transform="matrix(1,0,0,1,2026.8455551530758,-280) translate(35.24511718749999 64.966875)"/><path d="M2040.6-368.2l1.84 2.4m2.45 3.23l3.66 4.83m2.44 3.23l3.67 4.82m2.45 3.22l3.67 4.83m2.44 3.22l3.67 4.82m2.45 3.22l3.67 4.83m2.45 3.22l3.67 4.83m2.45 3.22l3.66 4.83m2.44 3.22l3.67 4.83m2.45 3.22l1.83 2.42" stroke="#5e5e5e" stroke-width="2" fill="none"/><path d="M2040-369h1.22l.18.23-1.56 1.18-1.1-1.44z" stroke="#5e5e5e" stroke-width=".05" fill="#5e5e5e"/><path d="M2104.9-283.58l-12.33-8.55 7.38-5.6z" stroke="#5e5e5e" stroke-width="2" fill="#5e5e5e"/><path d="M2080-340.14a6 6 0 0 1 6-6h79.42a6 6 0 0 1 6 6V-326a6 6 0 0 1-6 6H2086a6 6 0 0 1-6-6z" fill="none"/><use xlink:href="#t" transform="matrix(1,0,0,1,2085,-341.1428125) translate(0 13.350260416666668)"/><path d="M918-345.07v-2.96m0-3.94v-5.9m0-3.94v-5.92m0-3.94v-5.9m0-3.95v-5.92m0-3.94v-5.9m0-3.94v-5.9m0-3.95v-5.9m0-3.95v-5.9m0-3.94v-5.9m0-3.95v-5.9m0-3.94v-5.9m0-3.95v-5.9m0-3.94v-5.9m0-3.94v-5.9m0-3.95v-5.9m0-3.95v-5.9m0-3.95v-5.9m0-3.94v-5.9m0-3.95v-5.9m0-3.95v-5.9m0-3.95v-5.9m0-3.94v-5.9m0-3.95v-5.92m0-3.94v-5.9m0-3.95v-5.92m0-3.93v-5.9m0-3.95v-5.9m0-3.95v-5.9m0-3.95v-5.9m0-3.94v-2.96" stroke="#5e5e5e" stroke-width="2" fill="none"/><path d="M918.98-344.04l-.97-.03h-.98v-1.03H919z" stroke="#5e5e5e" stroke-width=".05" fill="#5e5e5e"/><path d="M918-655.76l4.63 14.26h-9.26z" stroke="#5e5e5e" stroke-width="2" fill="#5e5e5e"/><path d="M1280-283.07c0 33.14-35.82 60-80 60s-80-26.86-80-60 35.82-60 80-60 80 26.86 80 60z" stroke="#000" stroke-width="2" fill="#fff"/><use xlink:href="#u" transform="matrix(1,0,0,1,1120,-343.07140625) translate(45.75326171874999 57.466875)"/><use xlink:href="#v" transform="matrix(1,0,0,1,1120,-343.07140625) translate(92.05799804687501 57.466875)"/><use xlink:href="#A" transform="matrix(1,0,0,1,1120,-343.07140625) translate(55.165322265625 77.72162109375)"/><path d="M1200-1017.2v3.3m0 4.4v6.6m0 4.4v6.6m0 4.4v3.3l.07.92.22.92.35.87m2.63 2.63l.87.36.9.2.95.1h2.9m3.9 0h5.83m3.88 0h5.84m3.9 0h5.82m3.88 0h5.83m3.9 0h5.82m3.87 0h5.83m3.9 0h2.9l.94.06.9.22.88.36m2.63 2.62l.36.87.23.92.07.94v2.97m0 3.98v5.98m0 3.98v5.98m0 4v5.96m0 3.98v5.97m0 3.98v5.97m0 3.98v5.97m0 4v5.96m0 3.98v5.97m0 4v5.97m0 3.98v5.98m0 3.98v5.98m0 3.98v5.98m0 3.98v5.97m0 3.97v5.98m0 3.98v5.97m0 3.98v5.98m0 3.98v5.97m0 4v5.97m0 3.98v5.97m0 3.98v5.98m0 3.98v5.97m0 4v5.96m0 3.97v5.97m0 4v5.96m0 3.98v5.97m0 4v5.96m0 4v5.96m0 4v5.96m0 3.98v5.97m0 4v5.96m0 3.98v6m0 3.97v5.97m0 3.98v5.97m0 3.98v5.97m0 3.98v5.98m0 4v5.96m0 3.98v5.98m0 3.98v5.97m0 3.98v5.98m0 3.98v5.98m0 3.98v5.98m0 3.98v5.97m0 3.98v5.97m0 3.98v5.97m0 4v5.96m0 3.98v5.97m0 4v5.97m0 3.98v5.97m0 4v5.96m0 3.98v5.98m0 3.98v5.97m0 3.97v5.97m0 4v5.96m0 3.98v5.98m0 3.98v5.97m0 4v5.97m0 3.98v5.97m0 3.98v5.98m0 3.98v2.98l-.07.94-.22.92-.35.87m-2.63 2.62l-.87.35-.9.22-.95.07h-2.97m-3.97 0h-5.95m-3.95 0h-5.95m-3.97 0h-5.94m-3.98 0h-5.95m-3.96 0h-5.94m-3.97 0h-5.96m-3.96 0h-5.95m-3.97 0h-5.94m-3.97 0h-5.95m-3.96 0h-5.95m-3.98 0h-5.94m-3.97 0h-5.94m-3.96 0h-5.95m-3.97 0h-5.94m-3.97 0h-5.95m-3.96 0h-5.95m-3.96 0h-5.95m-3.97 0h-5.95m-3.96 0h-5.95m-3.97 0h-5.95m-3.96 0h-5.96m-3.96 0h-5.95m-3.97 0H1043m-3.95 0h-5.95m-3.96 0h-5.95m-3.98 0h-5.95m-3.96 0h-5.94m-3.97 0h-5.95m-3.97 0h-5.95m-3.96 0h-5.95m-3.97 0h-5.94m-3.96 0h-2.97l-.94.08-.92.22-.86.36m-2.62 2.62l-.36.87-.22.9-.07.94v2.33m0 3.1v4.65m0 3.1v2.32" stroke="#5e5e5e" stroke-width="2" fill="none"/><path d="M1200-1018.2l.92-.02h.05v1.03h-1.94v-1.04z" stroke="#5e5e5e" stroke-width=".05" fill="#5e5e5e"/><path d="M950.77-342.1l-4.64-14.26h9.27z" stroke="#5e5e5e" stroke-width="2" fill="#5e5e5e"/><path d="M1240-660c0 33.14-35.82 60-80 60s-80-26.86-80-60 35.82-60 80-60 80 26.86 80 60z" stroke="#000" stroke-width="2" fill="#fff"/><use xlink:href="#z" transform="matrix(1,0,0,1,1080,-720) translate(35.24511718749999 64.966875)"/><path d="M1118-283.07h-3.02m-4.02 0h-6.03m-4.02 0h-6.02m-4 0h-6.04m-4.02 0h-6.03m-4.03 0h-6.03m-4.02 0h-6.03m-4.03 0h-6.03m-4.02 0h-6.03m-4.03 0h-6.03m-4.02 0h-3.02" stroke="#5e5e5e" stroke-width="2" fill="none"/><path d="M1119-283.08v.4l.02.58h-1.05v-1.95h1.06z" stroke="#5e5e5e" stroke-width=".05" fill="#5e5e5e"/><path d="M1002.24-283.07l14.26-4.64v9.26z" stroke="#5e5e5e" stroke-width="2" fill="#5e5e5e"/><path d="M1015.82-314a6 6 0 0 1 6-6h76.9a6 6 0 0 1 6 6v14.14a6 6 0 0 1-6 6h-76.9a6 6 0 0 1-6-6z" fill="none"/><use xlink:href="#q" transform="matrix(1,0,0,1,1020.8146528783977,-315) translate(0 13.350260416666668)"/><path d="M2339.43-748.92l-207.97 303.65" stroke="#5e5e5e" stroke-width="2" fill="none"/><path d="M2340-749.75h1.18l-.95 1.4-1.6-1.1 1.37-2.02zm2.4-2h-2.2l.7-1.03z" stroke="#5e5e5e" stroke-width=".05" fill="#5e5e5e"/><path d="M2122.83-432.67l4.24-14.4 7.64 5.25z" stroke="#5e5e5e" stroke-width="2" fill="#5e5e5e"/><path d="M1080-414a6 6 0 0 1 6-6h76.9a6 6 0 0 1 6 6v14.14a6 6 0 0 1-6 6H1086a6 6 0 0 1-6-6z" fill="none"/><use xlink:href="#q" transform="matrix(1,0,0,1,1085,-415) translate(0 13.350260416666668)"/><path d="M1780-860c0 33.14-35.82 60-80 60s-80-26.86-80-60 35.82-60 80-60 80 26.86 80 60z" stroke="#000" stroke-width="2" fill="#fff"/><use xlink:href="#B" transform="matrix(1,0,0,1,1620,-920) translate(35.26963867187499 57.466875)"/><use xlink:href="#h" transform="matrix(1,0,0,1,1620,-920) translate(104.73083007812501 57.466875)"/><use xlink:href="#C" transform="matrix(1,0,0,1,1620,-920) translate(45.47874999999999 77.72162109375)"/><path d="M2120-1079.2c0 33.12-35.82 60-80 60s-80-26.88-80-60c0-33.15 35.82-60 80-60s80 26.85 80 60z" stroke="#000" stroke-width="2" fill="#fff"/><use xlink:href="#k" transform="matrix(1,0,0,1,1960,-1139.2142187499999) translate(26.75659667968749 64.966875)"/><use xlink:href="#D" transform="matrix(1,0,0,1,1960,-1139.2142187499999) translate(75.9630419921875 64.966875)"/><path d="M1846-1080h3.15m4.2 0h6.3m4.2 0h6.3m4.2 0h6.3m4.2 0h6.3m4.2 0h6.3m4.2 0h6.32m4.2 0h6.3m4.2 0h6.3m4.2 0h3.15" stroke="#5e5e5e" stroke-width="2" fill="none"/><path d="M1846.03-1079.03h-1.06l.03-.96v-.4l-.02-.57h1.05z" stroke="#5e5e5e" stroke-width=".05" fill="#5e5e5e"/><path d="M1955.8-1080l-14.28 4.63v-9.27z" stroke="#5e5e5e" stroke-width="2" fill="#5e5e5e"/><path d="M1856.3-1114a6 6 0 0 1 6-6h79.4a6 6 0 0 1 6 6v14.14a6 6 0 0 1-6 6h-79.4a6 6 0 0 1-6-6z" fill="none"/><use xlink:href="#t" transform="matrix(1,0,0,1,1861.288636951538,-1115) translate(0 13.350260416666668)"/><path d="M1980-673.86c0 33.14-35.82 60-80 60s-80-26.86-80-60c0-33.13 35.82-60 80-60s80 26.87 80 60z" stroke="#000" stroke-width="2" fill="#fff"/><use xlink:href="#E" transform="matrix(1,0,0,1,1820,-733.8571875) translate(40.533583984374985 57.466875)"/><use xlink:href="#j" transform="matrix(1,0,0,1,1820,-733.8571875) translate(47.440468749999994 77.72162109375)"/><path d="M2339.02-749.54l-339.92 71.86" stroke="#5e5e5e" stroke-width="2" fill="none"/><path d="M2340-749.75h3.07l.07.33-3.94.84-.4-1.9 1.2-.27z" stroke="#5e5e5e" stroke-width=".05" fill="#5e5e5e"/><path d="M1984.17-674.53l13-7.48 1.9 9.06z" stroke="#5e5e5e" stroke-width="2" fill="#5e5e5e"/><path d="M1827.45-440c0 33.14-35.82 60-80 60s-80-26.86-80-60 35.82-60 80-60 80 26.86 80 60z" stroke="#000" stroke-width="2" fill="#fff"/><use xlink:href="#F" transform="matrix(1,0,0,1,1667.4483851148068,-500) translate(48.05759277343749 57.466875)"/><use xlink:href="#G" transform="matrix(1,0,0,1,1667.4483851148068,-500) translate(41.59209472656249 77.72162109375)"/><path d="M2339.14-749.23l-494.86 299.65" stroke="#5e5e5e" stroke-width="2" fill="none"/><path d="M2340-749.75h1.88l-2.25 1.37-1-1.67 1.37-.84zm2.3-2h-.88l.64-.4z" stroke="#5e5e5e" stroke-width=".05" fill="#5e5e5e"/><path d="M1831.22-441.68l9.8-11.35 4.8 7.93z" stroke="#5e5e5e" stroke-width="2" fill="#5e5e5e"/><path d="M1700.55-921.84l1.6-2.45m2.13-3.25l3.2-4.9m2.13-3.27l3.2-4.9m2.15-3.27l3.2-4.9m2.13-3.26l3.2-4.9m2.13-3.26l3.22-4.9m2.13-3.27l3.2-4.9m2.13-3.26l3.2-4.9m2.14-3.26l3.2-4.9m2.13-3.27l3.2-4.9m2.13-3.26l1.6-2.45" stroke="#5e5e5e" stroke-width="2" fill="none"/><path d="M1701.38-921.33l-.24.37-1.13-.04h-1.17l.9-1.4z" stroke="#5e5e5e" stroke-width=".05" fill="#5e5e5e"/><path d="M1762.23-1016.3l-3.92 14.5-7.75-5.08z" stroke="#5e5e5e" stroke-width="2" fill="#5e5e5e"/><path d="M1620-967.86a6 6 0 0 1 6-6h79.42a6 6 0 0 1 6 6v14.15a6 6 0 0 1-6 6H1626a6 6 0 0 1-6-6z" fill="none"/><g><use xlink:href="#t" transform="matrix(1,0,0,1,1625,-968.8571875) translate(0 13.350260416666668)"/></g><path d="M918.8-1018.4l2.33 1.82m3.12 2.42l4.68 3.62m3.12 2.4l4.68 3.63m3.12 2.4l4.68 3.63m3.13 2.4l4.68 3.63m3.12 2.42l4.68 3.62m3.12 2.4l4.68 3.63m3.12 2.42l4.68 3.62m3.12 2.4l2.34 1.82 1.74-1.43.1-.02m3.03-.3l1.14.24 1 .6 1.44 1.74.02.08m.3 3.04l-.25 1.15-.6 1 2.42 1.88m3.22 2.48l4.82 3.73m3.2 2.48l4.83 3.73m3.2 2.5l4.83 3.73m3.2 2.48l4.83 3.74m3.22 2.5l4.82 3.72m3.2 2.5l4.84 3.7m3.2 2.5l4.83 3.73m3.22 2.48l4.8 3.73m3.22 2.5l2.4 1.86 1.76-1.43.08-.02m3.04-.27l1.15.23 1 .6 1.42 1.75.02.1m.28 3.03l-.24 1.15-.6 1 2.4 1.84m3.17 2.46l4.78 3.7m3.18 2.45l4.77 3.7m3.18 2.45l4.78 3.7m3.18 2.46l4.77 3.68m3.18 2.47l4.78 3.67m3.18 2.47l4.77 3.7m3.18 2.44l4.78 3.7m3.18 2.45l4.77 3.7m3.18 2.46l4.78 3.68m3.18 2.46l4.77 3.7m3.18 2.45l4.78 3.68m3.18 2.46l4.77 3.7m3.18 2.45l4.78 3.68m3.18 2.46l4.77 3.7m3.18 2.45l4.78 3.68m3.18 2.46l4.77 3.7m3.18 2.45l4.78 3.68m3.18 2.46l4.77 3.7m3.18 2.45l4.78 3.68m3.18 2.46l4.77 3.7m3.18 2.45l4.78 3.68m3.18 2.46l4.77 3.7m3.18 2.45l4.78 3.68m3.18 2.46l4.77 3.7m3.18 2.45l4.78 3.68m3.18 2.46l2.38 1.84 1.75-1.42.07-.02m3.04-.3l1.16.25 1 .6 1.43 1.73v.1m.3 3.03l-.24 1.14-.6 1 2.34 1.82m3.13 2.42l4.7 3.63m3.13 2.43l4.7 3.63m3.13 2.42l4.68 3.63m3.13 2.43l4.7 3.64m3.14 2.42l4.7 3.63m3.13 2.4l4.7 3.65m3.12 2.42l4.7 3.63m3.12 2.43l4.7 3.63m3.13 2.42l4.7 3.63m3.13 2.43l4.7 3.64m3.12 2.42l4.7 3.62m3.13 2.42l4.7 3.64m3.13 2.42l4.7 3.63m3.12 2.42l4.7 3.64m3.13 2.4l4.7 3.64m3.13 2.42l4.7 3.64m3.13 2.42l4.7 3.63m3.13 2.42l4.68 3.64m3.14 2.43l4.7 3.63m3.12 2.42l4.7 3.64m3.13 2.42l4.7 3.63m3.13 2.42l4.7 3.63m3.12 2.42l4.7 3.63m3.13 2.42l4.7 3.63m3.13 2.43l4.7 3.63m3.12 2.4l4.7 3.64m3.13 2.43l4.7 3.63m3.13 2.42l4.7 3.63m3.12 2.43l4.7 3.63m3.13 2.43l4.7 3.63m3.14 2.43l4.7 3.62m3.12 2.42l4.7 3.63m3.13 2.43l4.7 3.63m3.12 2.42l4.7 3.63m3.13 2.43l4.7 3.64m3.12 2.42l4.7 3.63m3.13 2.4l4.7 3.65m3.13 2.42l4.7 3.63m3.12 2.42l4.7 3.64m3.13 2.42l4.7 3.63m3.13 2.43l4.7 3.64m3.13 2.42l4.7 3.62m3.13 2.42l4.7 3.64m3.13 2.42l4.68 3.63m3.13 2.42l4.7 3.64m3.14 2.4l4.7 3.64m3.13 2.42l2.34 1.82" stroke="#5e5e5e" stroke-width="2" fill="none"/><path d="M918-1019h.92l.4-.02-1.1 1.42-1.88-1.45z" stroke="#5e5e5e" stroke-width=".05" fill="#5e5e5e"/><path d="M1663.9-441.98l-14.13-5.06 5.67-7.33z" stroke="#5e5e5e" stroke-width="2" fill="#5e5e5e"/><path d="M900-867.07a6 6 0 0 1 6-6h76.9a6 6 0 0 1 6 6v14.14a6 6 0 0 1-6 6H906a6 6 0 0 1-6-6z" fill="none"/><g><use xlink:href="#q" transform="matrix(1,0,0,1,905,-868.07140625) translate(0 13.350260416666668)"/></g><path d="M1360-594a6 6 0 0 1 6-6h79.42a6 6 0 0 1 6 6v14.14a6 6 0 0 1-6 6H1366a6 6 0 0 1-6-6z" fill="none"/><g><use xlink:href="#t" transform="matrix(1,0,0,1,1365,-595) translate(0 13.350260416666668)"/></g><path d="M1700.16-798l.47 2.97m.64 4l.95 5.96m.63 3.98l.95 5.98m.64 4l.95 5.96m.62 3.98l.95 5.97m.64 3.98l.96 5.97m.63 3.98l.94 5.97m.64 4l.95 5.96m.63 3.98l.95 5.97m.65 4l.95 5.97m.63 3.98l.95 5.97m.64 4l.95 5.96m.63 3.98l.95 5.97m.64 4l.94 5.96m.63 3.97l.95 5.97m.64 4l.95 5.96m.64 3.98l.95 5.97m.63 4l.95 5.96m.63 4l.96 5.96m.64 4l.95 5.96m.63 3.98l.95 5.98m.64 3.98l.95 5.97m.63 3.98l.95 6m.64 3.97l.95 5.97m.62 3.98l.95 5.98m.64 3.98l.96 5.97m.63 3.98l.94 5.97m.64 4l.95 5.96m.63 3.98l.48 3" stroke="#5e5e5e" stroke-width="2" fill="none"/><path d="M1700-799h.99l.12.86-1.92.3-.2-1.2z" stroke="#5e5e5e" stroke-width=".05" fill="#5e5e5e"/><path d="M1746.94-504.2l-6.82-13.35 9.15-1.46z" stroke="#5e5e5e" stroke-width="2" fill="#5e5e5e"/><path d="M1482.92-818.6l2.7 1.16m3.6 1.55l5.4 2.34m3.6 1.55l5.4 2.32m3.6 1.55l5.4 2.32m3.62 1.54l5.4 2.33m3.6 1.55l5.4 2.33m3.6 1.55l5.4 2.33m3.6 1.55l5.4 2.33m3.62 1.56l5.4 2.33m3.6 1.54l5.4 2.32m3.6 1.55l5.4 2.34m3.6 1.55l5.4 2.32m3.62 1.55l5.4 2.33m3.6 1.55l5.4 2.33m3.6 1.55l5.4 2.33m3.6 1.55l5.4 2.33m3.6 1.55l5.42 2.33m3.6 1.56l5.4 2.33m3.6 1.54l5.4 2.33m3.6 1.55l5.4 2.33m3.6 1.55l5.42 2.33m3.6 1.55l5.4 2.32m3.6 1.55l5.4 2.33m3.6 1.55l5.4 2.33m3.6 1.55l5.42 2.34m3.6 1.55l2.7 1.15 1.4-1.86m2.87-1.04l1.64.04.67.24 1.87 1.4m1.03 2.87l-.04 1.64-.24.67 2.83 1.23m3.77 1.62l5.65 2.43m3.77 1.63l5.65 2.44m3.76 1.62l5.65 2.44m3.78 1.62l5.65 2.43m3.77 1.63l5.65 2.43m3.77 1.63l5.65 2.44m3.77 1.62l5.65 2.43m3.76 1.62l5.65 2.43m3.78 1.63l2.83 1.22" stroke="#5e5e5e" stroke-width="2" fill="none"/><path d="M1482-819h1.12l-.56 1.3-3.22-1.38z" stroke="#5e5e5e" stroke-width=".05" fill="#5e5e5e"/><path d="M1816.03-675.14l-14.94-1.38 3.66-8.52z" stroke="#5e5e5e" stroke-width="2" fill="#5e5e5e"/><path d="M1528.58-754a6 6 0 0 1 6-6H1614a6 6 0 0 1 6 6v14.14a6 6 0 0 1-6 6h-79.42a6 6 0 0 1-6-6z" fill="none"/><g><use xlink:href="#t" transform="matrix(1,0,0,1,1533.5772395833333,-755) translate(0 13.350260416666668)"/></g><defs><path d="M786 20C389 20 94-260 94-744c0-487 299-766 692-766 339 0 597 194 641 529h-309c-28-162-156-258-326-258-233 0-388 179-388 495 0 323 157 493 387 493 170 0 298-97 328-259h309c-34 277-266 530-642 530" id="H"/><path d="M128 0v-1118h300V0H128zm150-1264c-91 0-165-68-165-154 0-85 74-154 165-154 90 0 165 69 165 154 0 86-75 154-165 154" id="I"/><path d="M428-647V0H128v-1118h283l4 231c63-156 176-245 348-245 232 0 384 159 384 421V0H847v-659c0-139-76-222-202-222-128 0-217 86-217 234" id="J"/><path d="M633 22C291 22 81-200 81-553c0-345 210-579 537-579 292 0 525 185 525 567v84H378c7 183 109 277 260 277 105 0 184-46 216-132l272 51C1071-99 893 22 633 22zM380-669h474c-15-146-94-237-233-237-143 0-229 99-241 237" id="K"/><path d="M135 0v-1490h468l242 684c30 94 76 293 111 455 34-161 80-360 110-455l238-684h470V0h-307c0-447-3-765 11-1227-122 503-246 788-395 1227H826C676-435 552-717 427-1215c15 453 11 775 11 1215H135" id="L"/><path d="M440 22C227 22 68-92 68-313c0-250 202-322 422-343 195-21 271-24 271-105 0-95-63-149-175-149-116 0-187 57-211 129l-275-46c57-194 237-305 487-305 240 0 474 108 474 379V0H777v-155h-10C713-51 605 22 440 22zm85-211c140 0 238-93 238-211v-121c-37 26-156 42-222 51-111 16-185 59-185 149 0 87 70 132 169 132" id="M"/><path d="M625 442c-280 0-454-114-503-274l258-72c28 63 97 128 243 128 153 0 246-69 246-216v-206h-23C805-108 717-16 536-16 284-16 81-191 81-561c0-378 208-571 456-571 188 0 280 113 321 202h13v-188h295V-9c0 303-226 451-541 451zm5-686c153 0 240-119 240-319 0-198-86-329-240-329-158 0-241 137-241 329 0 195 85 319 241 319" id="N"/><path d="M628 22C291 22 81-210 81-554c0-346 210-578 547-578 265 0 455 142 497 372l-279 52c-25-116-99-188-215-188-160 0-244 139-244 341 0 200 84 341 244 341 116 0 193-74 217-195l279 51C1085-123 896 22 628 22" id="O"/><g id="a"><use transform="matrix(0.014973958333333332,0,0,0.014973958333333332,0,0)" xlink:href="#H"/><use transform="matrix(0.014973958333333332,0,0,0.014973958333333332,22.685546875,0)" xlink:href="#I"/><use transform="matrix(0.014973958333333332,0,0,0.014973958333333332,30.996093749999996,0)" xlink:href="#J"/><use transform="matrix(0.014973958333333332,0,0,0.014973958333333332,50.087890625,0)" xlink:href="#K"/><use transform="matrix(0.014973958333333332,0,0,0.014973958333333332,68.35611979166666,0)" xlink:href="#L"/><use transform="matrix(0.014973958333333332,0,0,0.014973958333333332,96.92643229166666,0)" xlink:href="#M"/><use transform="matrix(0.014973958333333332,0,0,0.014973958333333332,114.73046874999999,0)" xlink:href="#N"/><use transform="matrix(0.014973958333333332,0,0,0.014973958333333332,134.10677083333331,0)" xlink:href="#I"/><use transform="matrix(0.014973958333333332,0,0,0.014973958333333332,142.41731770833331,0)" xlink:href="#O"/></g><path d="M180 0v-1490h908v168H370v486h669v168H370v500h727V0H180" id="P"/><path d="M538 24C308 24 148-78 108-271l171-41c32 123 123 178 257 178 156 0 256-77 256-169 0-77-54-128-164-154l-186-44c-203-48-300-148-300-305 0-192 176-326 414-326 230 0 351 112 402 269l-163 42c-31-80-94-158-238-158-133 0-233 69-233 162 0 83 57 129 188 160l169 40c203 48 298 149 298 302 0 196-179 339-441 339" id="Q"/><path d="M158 418v-1536h174v179h20c37-59 106-193 324-193 279 0 474 222 474 576 0 356-194 580-473 580-213 0-288-135-325-197h-14v591H158zm492-555c209 0 317-186 317-421 0-232-105-413-317-413-206 0-314 166-314 413 0 249 111 421 314 421" id="R"/><path d="M628 24c-324 0-524-230-524-574 0-343 198-582 503-582 237 0 487 146 487 559v75H286c9 234 145 362 343 362 132 0 231-58 273-172l174 48C1024-91 857 24 628 24zM287-650h624c-17-190-120-322-304-322-192 0-309 151-320 322" id="S"/><path d="M613 24c-304 0-509-231-509-576 0-350 205-580 509-580 216 0 392 114 453 309l-173 49c-33-115-133-197-280-197-223 0-326 196-326 419 0 220 103 415 326 415 150 0 252-85 285-206l172 49C1010-95 832 24 613 24" id="T"/><path d="M598-1118v154H368v674c0 100 37 144 132 144 23 0 62-6 92-12L629-6c-37 13-88 20-134 20-193 0-307-107-307-290v-688H20v-154h168v-266h180v266h230" id="U"/><path d="M471 26C259 26 90-98 90-318c0-256 228-303 435-329 202-27 287-16 287-108 0-139-79-219-234-219-161 0-248 86-283 164l-173-57c86-203 278-265 451-265 150 0 419 46 419 395V0H815v-152h-12C765-73 660 26 471 26zm31-159c199 0 310-134 310-271v-155c-30 35-226 55-295 64-131 17-246 59-246 186 0 116 97 176 231 176" id="V"/><path d="M577 24c-279 0-473-224-473-580 0-354 195-576 474-576 218 0 287 134 324 193h14v-551h180V0H922v-173h-20C865-111 790 24 577 24zm27-161c203 0 314-172 314-421 0-247-108-413-314-413-212 0-317 181-317 413 0 235 108 421 317 421" id="W"/><path d="M613 24c-304 0-509-231-509-576 0-350 205-580 509-580 305 0 511 230 511 580 0 345-206 576-511 576zm0-161c226 0 329-195 329-415 0-222-103-419-329-419-223 0-326 196-326 419 0 220 103 415 326 415" id="X"/><path d="M158 0v-1118h174v172h12c41-113 157-188 290-188 26 0 70 2 91 3v181c-11-2-60-10-108-10-161 0-279 109-279 260V0H158" id="Y"/><g id="b"><use transform="matrix(0.010850694444444444,0,0,0.010850694444444444,0,0)" xlink:href="#P"/><use transform="matrix(0.010850694444444444,0,0,0.010850694444444444,13.35720486111111,0)" xlink:href="#Q"/><use transform="matrix(0.010850694444444444,0,0,0.010850694444444444,25.08680555555556,0)" xlink:href="#R"/><use transform="matrix(0.010850694444444444,0,0,0.010850694444444444,38.693576388888886,0)" xlink:href="#S"/><use transform="matrix(0.010850694444444444,0,0,0.010850694444444444,51.64930555555556,0)" xlink:href="#T"/><use transform="matrix(0.010850694444444444,0,0,0.010850694444444444,64.34461805555554,0)" xlink:href="#U"/><use transform="matrix(0.010850694444444444,0,0,0.010850694444444444,71.72309027777776,0)" xlink:href="#V"/><use transform="matrix(0.010850694444444444,0,0,0.010850694444444444,84.20138888888887,0)" xlink:href="#W"/><use transform="matrix(0.010850694444444444,0,0,0.010850694444444444,97.8081597222222,0)" xlink:href="#X"/><use transform="matrix(0.010850694444444444,0,0,0.010850694444444444,111.13281249999997,0)" xlink:href="#Y"/></g><path fill="#656565" d="M49 0l509-1490h400L1480 0h-339l-115-346H497L386 0H49zm524-585h374c-75-213-124-402-192-666-66 268-110 453-182 666" id="Z"/><path fill="#656565" d="M537 19C279 19 81-185 81-557c0-382 206-575 454-575 190 0 278 113 318 202h10v-560h300V0H868v-179h-15C812-89 719 19 537 19zm92-241c153 0 240-134 240-336 0-203-86-334-240-334-158 0-240 138-240 334 0 197 84 336 240 336" id="aa"/><path fill="#656565" d="M128 0v-1118h278l12 217c60-163 185-234 319-234 143 0 236 81 288 251 63-172 205-251 359-251 205 0 357 138 357 381V0h-301v-697c0-126-76-187-177-187-114 0-184 79-184 196V0H789v-705c0-109-72-179-174-179-106 0-187 74-187 208V0H128" id="ab"/><path fill="#656565" d="M128 0v-1118h300V0H128zm150-1264c-91 0-165-68-165-154 0-85 74-154 165-154 90 0 165 69 165 154 0 86-75 154-165 154" id="ac"/><path fill="#656565" d="M428-647V0H128v-1118h283l4 231c63-156 176-245 348-245 232 0 384 159 384 421V0H847v-659c0-139-76-222-202-222-128 0-217 86-217 234" id="ad"/><path fill="#656565" d="M572 22C302 22 117-98 78-306l279-48c29 105 101 156 224 156 114 0 185-48 185-115 0-118-228-130-337-155-215-49-322-150-322-317 0-215 187-347 470-347 265 0 424 116 466 298l-266 47c-24-76-87-130-196-130-98 0-174 46-174 113 0 56 38 95 144 117l201 40c216 44 320 143 320 302 0 220-207 367-500 367" id="ae"/><path fill="#656565" d="M683-1118v229H474v562c0 71 29 104 102 104 23 0 73-7 95-13l43 225C647 9 580 16 520 16 296 16 174-96 174-301v-588H20v-229h154v-266h300v266h209" id="af"/><path fill="#656565" d="M128 0v-1118h290v195h12c54-169 184-238 367-200v268c-27-8-86-15-130-15-138 0-239 95-239 234V0H128" id="ag"/><path fill="#656565" d="M440 22C227 22 68-92 68-313c0-250 202-322 422-343 195-21 271-24 271-105 0-95-63-149-175-149-116 0-187 57-211 129l-275-46c57-194 237-305 487-305 240 0 474 108 474 379V0H777v-155h-10C713-51 605 22 440 22zm85-211c140 0 238-93 238-211v-121c-37 26-156 42-222 51-111 16-185 59-185 149 0 87 70 132 169 132" id="ah"/><path fill="#656565" d="M628 22C291 22 81-210 81-554c0-346 210-578 547-578 336 0 547 232 547 578 0 344-211 576-547 576zm0-236c160 0 242-146 242-341 0-197-82-341-242-341S387-753 387-555c0 195 81 341 241 341" id="ai"/><path fill="#656565" d="M633 22C291 22 81-200 81-553c0-345 210-579 537-579 292 0 525 185 525 567v84H378c7 183 109 277 260 277 105 0 184-46 216-132l272 51C1071-99 893 22 633 22zM380-669h474c-15-146-94-237-233-237-143 0-229 99-241 237" id="aj"/><g id="c"><use transform="matrix(0.008680555555555556,0,0,0.008680555555555556,0,0)" xlink:href="#Z"/><use transform="matrix(0.008680555555555556,0,0,0.008680555555555556,12.864583333333334,0)" xlink:href="#aa"/><use transform="matrix(0.008680555555555556,0,0,0.008680555555555556,24.071180555555557,0)" xlink:href="#ab"/><use transform="matrix(0.008680555555555556,0,0,0.008680555555555556,40.29513888888889,0)" xlink:href="#ac"/><use transform="matrix(0.008680555555555556,0,0,0.008680555555555556,45.112847222222236,0)" xlink:href="#ad"/><use transform="matrix(0.008680555555555556,0,0,0.008680555555555556,56.180555555555564,0)" xlink:href="#ac"/><use transform="matrix(0.008680555555555556,0,0,0.008680555555555556,60.9982638888889,0)" xlink:href="#ae"/><use transform="matrix(0.008680555555555556,0,0,0.008680555555555556,70.95486111111113,0)" xlink:href="#af"/><use transform="matrix(0.008680555555555556,0,0,0.008680555555555556,77.4652777777778,0)" xlink:href="#ag"/><use transform="matrix(0.008680555555555556,0,0,0.008680555555555556,84.46180555555557,0)" xlink:href="#ah"/><use transform="matrix(0.008680555555555556,0,0,0.008680555555555556,94.78298611111113,0)" xlink:href="#aa"/><use transform="matrix(0.008680555555555556,0,0,0.008680555555555556,105.98958333333336,0)" xlink:href="#ai"/><use transform="matrix(0.008680555555555556,0,0,0.008680555555555556,116.89236111111114,0)" xlink:href="#ag"/><use transform="matrix(0.008680555555555556,0,0,0.008680555555555556,123.6979166666667,0)" xlink:href="#aj"/><use transform="matrix(0.008680555555555556,0,0,0.008680555555555556,134.28819444444449,0)" xlink:href="#ae"/></g><g id="d"><use transform="matrix(0.008680555555555556,0,0,0.008680555555555556,0,0)" xlink:href="#aa"/><use transform="matrix(0.008680555555555556,0,0,0.008680555555555556,11.206597222222223,0)" xlink:href="#aj"/></g><path fill="#656565" d="M786 20C389 20 94-260 94-744c0-487 299-766 692-766 339 0 597 194 641 529h-309c-28-162-156-258-326-258-233 0-388 179-388 495 0 323 157 493 387 493 170 0 298-97 328-259h309c-34 277-266 530-642 530" id="ak"/><g id="e"><use transform="matrix(0.008680555555555556,0,0,0.008680555555555556,0,0)" xlink:href="#ak"/><use transform="matrix(0.008680555555555556,0,0,0.008680555555555556,13.151041666666668,0)" xlink:href="#ac"/><use transform="matrix(0.008680555555555556,0,0,0.008680555555555556,17.96875,0)" xlink:href="#ad"/><use transform="matrix(0.008680555555555556,0,0,0.008680555555555556,29.036458333333336,0)" xlink:href="#aj"/></g><path d="M600 0L52-1490h200c166 485 304 806 458 1336 156-533 285-846 449-1336h202L819 0H600" id="al"/><g id="f"><use transform="matrix(0.008173828125000001,0,0,0.008173828125000001,0,0)" xlink:href="#al"/><use transform="matrix(0.008173828125000001,0,0,0.008173828125000001,10.699541015625002,0)" xlink:href="#S"/><use transform="matrix(0.008173828125000001,0,0,0.008173828125000001,20.459091796874997,0)" xlink:href="#Y"/></g><path d="M338-1490V0H158v-1490h180" id="am"/><g id="g"><use transform="matrix(0.008173828125000001,0,0,0.008173828125000001,0,0)" xlink:href="#T"/><use transform="matrix(0.008173828125000001,0,0,0.008173828125000001,9.726855468750001,0)" xlink:href="#V"/><use transform="matrix(0.008173828125000001,0,0,0.008173828125000001,19.126757812500003,0)" xlink:href="#Y"/><use transform="matrix(0.008173828125000001,0,0,0.008173828125000001,25.690341796875003,0)" xlink:href="#U"/><use transform="matrix(0.008173828125000001,0,0,0.008173828125000001,31.003330078125003,0)" xlink:href="#S"/><use transform="matrix(0.008173828125000001,0,0,0.008173828125000001,40.762880859375,0)" xlink:href="#am"/><use transform="matrix(0.008173828125000001,0,0,0.008173828125000001,44.817099609375006,0)" xlink:href="#S"/><use transform="matrix(0.008173828125000001,0,0,0.008173828125000001,54.576650390625005,0)" xlink:href="#Y"/><use transform="matrix(0.008173828125000001,0,0,0.008173828125000001,60.87867187500001,0)" xlink:href="#V"/></g><g id="h"><use transform="matrix(0.008173828125000001,0,0,0.008173828125000001,0,0)" xlink:href="#W"/><use transform="matrix(0.008173828125000001,0,0,0.008173828125000001,10.249980468750001,0)" xlink:href="#S"/></g><path d="M158 0v-1118h180V0H158zm12-1264l140-294h201l-194 294H170" id="an"/><path d="M537 14c-226 0-379-139-379-422v-710h180v695c0 172 97 275 253 275 160 0 281-109 281-300v-670h181V0H879v-209C806-46 684 14 537 14" id="ao"/><g id="i"><use transform="matrix(0.008173828125000001,0,0,0.008173828125000001,0,0)" xlink:href="#R"/><use transform="matrix(0.008173828125000001,0,0,0.008173828125000001,10.249980468750001,0)" xlink:href="#S"/><use transform="matrix(0.008173828125000001,0,0,0.008173828125000001,20.009531250000002,0)" xlink:href="#am"/><use transform="matrix(0.008173828125000001,0,0,0.008173828125000001,24.063750000000002,0)" xlink:href="#an"/><use transform="matrix(0.008173828125000001,0,0,0.008173828125000001,28.117968750000003,0)" xlink:href="#T"/><use transform="matrix(0.008173828125000001,0,0,0.008173828125000001,37.681347656250004,0)" xlink:href="#ao"/><use transform="matrix(0.008173828125000001,0,0,0.008173828125000001,47.579853515625004,0)" xlink:href="#am"/><use transform="matrix(0.008173828125000001,0,0,0.008173828125000001,51.63407226562501,0)" xlink:href="#V"/><use transform="matrix(0.008173828125000001,0,0,0.008173828125000001,61.03397460937501,0)" xlink:href="#Q"/></g><path d="M338-670V0H158v-1490h180v566c73-149 190-208 336-208 226 0 379 139 379 422V0H872v-695c0-172-96-275-252-275-161 0-282 109-282 300" id="ap"/><path d="M158 0v-1118h180V0H158zm91-1301c-68 0-125-53-125-119s57-119 125-119c69 0 126 53 126 119s-57 119-126 119" id="aq"/><g id="j"><use transform="matrix(0.008173828125000001,0,0,0.008173828125000001,0,0)" xlink:href="#ap"/><use transform="matrix(0.008173828125000001,0,0,0.008173828125000001,9.898505859375001,0)" xlink:href="#X"/><use transform="matrix(0.008173828125000001,0,0,0.008173828125000001,19.935966796875,0)" xlink:href="#Y"/><use transform="matrix(0.008173828125000001,0,0,0.008173828125000001,26.23798828125,0)" xlink:href="#V"/><use transform="matrix(0.008173828125000001,0,0,0.008173828125000001,35.637890625000004,0)" xlink:href="#Y"/><use transform="matrix(0.008173828125000001,0,0,0.008173828125000001,42.201474609375,0)" xlink:href="#aq"/><use transform="matrix(0.008173828125000001,0,0,0.008173828125000001,46.255693359374995,0)" xlink:href="#X"/><use transform="matrix(0.008173828125000001,0,0,0.008173828125000001,56.293154296875,0)" xlink:href="#Q"/></g><path d="M611 442c-248 0-391-105-460-228l146-94c47 65 117 165 314 165 178 0 307-82 307-266v-224h-17C863-141 792-18 576-18c-268 0-472-195-472-546 0-346 197-568 476-568 216 0 288 133 326 193h17v-179h175V29c0 289-215 413-487 413zm-5-620c203 0 314-146 314-390 0-237-108-403-314-403-213 0-319 180-319 403 0 230 109 390 319 390" id="ar"/><g id="k"><use transform="matrix(0.008173828125000001,0,0,0.008173828125000001,0,0)" xlink:href="#P"/><use transform="matrix(0.008173828125000001,0,0,0.008173828125000001,10.061982421875001,0)" xlink:href="#am"/><use transform="matrix(0.008173828125000001,0,0,0.008173828125000001,14.116201171875002,0)" xlink:href="#S"/><use transform="matrix(0.008173828125000001,0,0,0.008173828125000001,23.875751953125004,0)" xlink:href="#ar"/><use transform="matrix(0.008173828125000001,0,0,0.008173828125000001,34.142080078125005,0)" xlink:href="#aq"/><use transform="matrix(0.008173828125000001,0,0,0.008173828125000001,38.19629882812501,0)" xlink:href="#Y"/></g><g id="l"><use transform="matrix(0.008173828125000001,0,0,0.008173828125000001,0,0)" xlink:href="#R"/><use transform="matrix(0.008173828125000001,0,0,0.008173828125000001,10.249980468750001,0)" xlink:href="#S"/><use transform="matrix(0.008173828125000001,0,0,0.008173828125000001,20.009531250000002,0)" xlink:href="#am"/><use transform="matrix(0.008173828125000001,0,0,0.008173828125000001,24.063750000000002,0)" xlink:href="#an"/><use transform="matrix(0.008173828125000001,0,0,0.008173828125000001,28.117968750000003,0)" xlink:href="#T"/><use transform="matrix(0.008173828125000001,0,0,0.008173828125000001,37.681347656250004,0)" xlink:href="#ao"/><use transform="matrix(0.008173828125000001,0,0,0.008173828125000001,47.579853515625004,0)" xlink:href="#am"/><use transform="matrix(0.008173828125000001,0,0,0.008173828125000001,51.63407226562501,0)" xlink:href="#V"/></g><path d="M783 20c-382 0-661-292-661-764 0-473 279-766 661-766 302 0 548 182 601 489h-190c-42-204-217-313-411-313-268 0-476 208-476 590 0 381 209 588 476 588 195 0 369-110 411-313h190c-52 303-296 489-601 489" id="as"/><path d="M158 0v-1118h175l1 205c55-151 181-225 313-225 147 0 245 90 285 228 53-141 190-228 352-228 194 0 352 125 352 384V0h-181v-749c0-161-105-225-225-225-151 0-243 103-243 244V0H807v-767c0-124-93-207-219-207-131 0-250 92-250 270V0H158" id="at"/><g id="m"><use transform="matrix(0.008173828125000001,0,0,0.008173828125000001,0,0)" xlink:href="#as"/><use transform="matrix(0.008173828125000001,0,0,0.008173828125000001,12.228046875000002,0)" xlink:href="#X"/><use transform="matrix(0.008173828125000001,0,0,0.008173828125000001,22.265507812500008,0)" xlink:href="#at"/><use transform="matrix(0.008173828125000001,0,0,0.008173828125000001,36.92935546875,0)" xlink:href="#R"/><use transform="matrix(0.008173828125000001,0,0,0.008173828125000001,47.17933593750001,0)" xlink:href="#Y"/><use transform="matrix(0.008173828125000001,0,0,0.008173828125000001,53.481357421875,0)" xlink:href="#V"/><use transform="matrix(0.008173828125000001,0,0,0.008173828125000001,62.881259765625,0)" xlink:href="#Y"/></g><path d="M180 0v-1490h528c311 0 458 177 458 395 0 191-114 278-244 313v14c139 9 302 137 302 371 0 225-148 397-499 397H180zm190-168h350c232 0 321-102 321-231 0-149-120-277-311-277H370v508zm0-668h328c160 0 286-101 286-255 0-129-87-231-280-231H370v486" id="au"/><g id="n"><use transform="matrix(0.008173828125000001,0,0,0.008173828125000001,0,0)" xlink:href="#au"/><use transform="matrix(0.008173828125000001,0,0,0.008173828125000001,10.952929687500001,0)" xlink:href="#X"/><use transform="matrix(0.008173828125000001,0,0,0.008173828125000001,20.990390625000003,0)" xlink:href="#am"/><use transform="matrix(0.008173828125000001,0,0,0.008173828125000001,25.044609375000004,0)" xlink:href="#S"/><use transform="matrix(0.008173828125000001,0,0,0.008173828125000001,34.804160156250006,0)" xlink:href="#U"/><use transform="matrix(0.008173828125000001,0,0,0.008173828125000001,40.117148437500006,0)" xlink:href="#X"/></g><g id="o"><use transform="matrix(0.008173828125000001,0,0,0.008173828125000001,0,0)" xlink:href="#R"/><use transform="matrix(0.008173828125000001,0,0,0.008173828125000001,10.249980468750001,0)" xlink:href="#Y"/><use transform="matrix(0.008173828125000001,0,0,0.008173828125000001,16.274091796875002,0)" xlink:href="#S"/><use transform="matrix(0.008173828125000001,0,0,0.008173828125000001,26.033642578125004,0)" xlink:href="#T"/><use transform="matrix(0.008173828125000001,0,0,0.008173828125000001,35.597021484375006,0)" xlink:href="#aq"/><use transform="matrix(0.008173828125000001,0,0,0.008173828125000001,39.65124023437501,0)" xlink:href="#X"/><use transform="matrix(0.008173828125000001,0,0,0.008173828125000001,49.68870117187501,0)" xlink:href="#Q"/></g><path d="M338-670V0H158v-1118h173l1 207c72-158 192-221 342-221 226 0 378 139 378 422V0H872v-695c0-172-96-275-252-275-161 0-282 109-282 300" id="av"/><g id="p"><use transform="matrix(0.008173828125000001,0,0,0.008173828125000001,0,0)" xlink:href="#as"/><use transform="matrix(0.008173828125000001,0,0,0.008173828125000001,12.228046875000002,0)" xlink:href="#V"/><use transform="matrix(0.008173828125000001,0,0,0.008173828125000001,21.627949218750004,0)" xlink:href="#av"/><use transform="matrix(0.008173828125000001,0,0,0.008173828125000001,31.518281250000005,0)" xlink:href="#T"/><use transform="matrix(0.008173828125000001,0,0,0.008173828125000001,41.08166015625001,0)" xlink:href="#S"/><use transform="matrix(0.008173828125000001,0,0,0.008173828125000001,50.84121093750001,0)" xlink:href="#am"/><use transform="matrix(0.008173828125000001,0,0,0.008173828125000001,54.89542968750001,0)" xlink:href="#V"/><use transform="matrix(0.008173828125000001,0,0,0.008173828125000001,64.29533203125001,0)" xlink:href="#Y"/></g><path d="M174-520v-126l944-476v196L406-588v12l712 338v194" id="aw"/><path d="M65 0l393-574-370-544h210c88 136 192 297 267 435 67-142 176-302 264-435h206L661-564 1053 0H844c-94-144-206-310-287-458C484-308 366-142 273 0H65" id="ax"/><path d="M1181-520L237-44v-194l712-338v-12L237-926v-196l944 476v126" id="ay"/><g id="q"><use transform="matrix(0.006510416666666667,0,0,0.006510416666666667,0,0)" xlink:href="#aw"/><use transform="matrix(0.006510416666666667,0,0,0.006510416666666667,8.821614583333334,0)" xlink:href="#aw"/><use transform="matrix(0.006510416666666667,0,0,0.006510416666666667,17.643229166666668,0)" xlink:href="#P"/><use transform="matrix(0.006510416666666667,0,0,0.006510416666666667,25.657552083333336,0)" xlink:href="#ax"/><use transform="matrix(0.006510416666666667,0,0,0.006510416666666667,33.196614583333336,0)" xlink:href="#U"/><use transform="matrix(0.006510416666666667,0,0,0.006510416666666667,37.428385416666664,0)" xlink:href="#S"/><use transform="matrix(0.006510416666666667,0,0,0.006510416666666667,45.201822916666664,0)" xlink:href="#av"/><use transform="matrix(0.006510416666666667,0,0,0.006510416666666667,53.07942708333333,0)" xlink:href="#W"/><use transform="matrix(0.006510416666666667,0,0,0.006510416666666667,61.24348958333332,0)" xlink:href="#ay"/><use transform="matrix(0.006510416666666667,0,0,0.006510416666666667,70.06510416666666,0)" xlink:href="#ay"/></g><path d="M370-1490V0H180v-1490h190" id="az"/><g id="r"><use transform="matrix(0.008173828125000001,0,0,0.008173828125000001,0,0)" xlink:href="#az"/><use transform="matrix(0.008173828125000001,0,0,0.008173828125000001,4.495605468750001,0)" xlink:href="#av"/><use transform="matrix(0.008173828125000001,0,0,0.008173828125000001,14.3859375,0)" xlink:href="#aq"/><use transform="matrix(0.008173828125000001,0,0,0.008173828125000001,18.44015625,0)" xlink:href="#T"/><use transform="matrix(0.008173828125000001,0,0,0.008173828125000001,28.003535156250003,0)" xlink:href="#aq"/><use transform="matrix(0.008173828125000001,0,0,0.008173828125000001,32.05775390625,0)" xlink:href="#V"/><use transform="matrix(0.008173828125000001,0,0,0.008173828125000001,41.45765625,0)" xlink:href="#Y"/></g><path d="M657 26c-323 0-524-166-541-416h195c15 169 171 246 346 246 202 0 356-106 356-265 5-203-294-238-475-293-239-73-380-191-380-389 0-252 224-419 512-419 294 0 499 171 508 396H992c-17-145-151-228-328-228-193 0-321 102-321 242 0 156 175 211 284 241l149 41c160 44 422 134 422 412 0 244-197 432-541 432" id="aA"/><path d="M613 24c-304 0-509-231-509-576 0-350 205-580 509-580 305 0 511 230 511 580 0 345-206 576-511 576zm0-161c226 0 329-195 329-415 0-222-103-419-329-419-223 0-326 196-326 419 0 220 103 415 326 415zm-79-1127l140-294h201l-194 294H534" id="aB"/><g id="s"><use transform="matrix(0.008173828125000001,0,0,0.008173828125000001,0,0)" xlink:href="#aA"/><use transform="matrix(0.008173828125000001,0,0,0.008173828125000001,10.740410156250002,0)" xlink:href="#S"/><use transform="matrix(0.008173828125000001,0,0,0.008173828125000001,20.499960937500003,0)" xlink:href="#Q"/><use transform="matrix(0.008173828125000001,0,0,0.008173828125000001,29.335869140625004,0)" xlink:href="#aq"/><use transform="matrix(0.008173828125000001,0,0,0.008173828125000001,33.390087890625004,0)" xlink:href="#aB"/><use transform="matrix(0.008173828125000001,0,0,0.008173828125000001,43.427548828125005,0)" xlink:href="#av"/></g><g id="t"><use transform="matrix(0.006510416666666667,0,0,0.006510416666666667,0,0)" xlink:href="#aw"/><use transform="matrix(0.006510416666666667,0,0,0.006510416666666667,8.821614583333334,0)" xlink:href="#aw"/><use transform="matrix(0.006510416666666667,0,0,0.006510416666666667,17.643229166666668,0)" xlink:href="#az"/><use transform="matrix(0.006510416666666667,0,0,0.006510416666666667,21.223958333333336,0)" xlink:href="#av"/><use transform="matrix(0.006510416666666667,0,0,0.006510416666666667,29.1015625,0)" xlink:href="#T"/><use transform="matrix(0.006510416666666667,0,0,0.006510416666666667,36.71875,0)" xlink:href="#am"/><use transform="matrix(0.006510416666666667,0,0,0.006510416666666667,39.947916666666664,0)" xlink:href="#ao"/><use transform="matrix(0.006510416666666667,0,0,0.006510416666666667,47.83203125,0)" xlink:href="#W"/><use transform="matrix(0.006510416666666667,0,0,0.006510416666666667,55.99609375,0)" xlink:href="#S"/><use transform="matrix(0.006510416666666667,0,0,0.006510416666666667,63.76953125,0)" xlink:href="#ay"/><use transform="matrix(0.006510416666666667,0,0,0.006510416666666667,72.59114583333333,0)" xlink:href="#ay"/></g><path d="M645 0H180v-1490h484c435 0 692 280 692 742 0 466-257 748-711 748zM370-168h263c363 0 539-218 539-580 0-358-176-574-521-574H370v1154" id="aC"/><path d="M157-1118h181V80c1 225-123 350-364 338V252c126 9 184-48 183-172v-1198zm91-183c-68 0-125-53-125-119s57-119 125-119c69 0 126 53 126 119s-57 119-126 119" id="aD"/><g id="u"><use transform="matrix(0.008173828125000001,0,0,0.008173828125000001,0,0)" xlink:href="#aC"/><use transform="matrix(0.008173828125000001,0,0,0.008173828125000001,12.08091796875,0)" xlink:href="#S"/><use transform="matrix(0.008173828125000001,0,0,0.008173828125000001,21.84046875,0)" xlink:href="#aD"/><use transform="matrix(0.008173828125000001,0,0,0.008173828125000001,25.8946875,0)" xlink:href="#V"/><use transform="matrix(0.008173828125000001,0,0,0.008173828125000001,35.29458984375,0)" xlink:href="#Y"/></g><g id="v"><use transform="matrix(0.008173828125000001,0,0,0.008173828125000001,0,0)" xlink:href="#ao"/><use transform="matrix(0.008173828125000001,0,0,0.008173828125000001,9.898505859375001,0)" xlink:href="#av"/><use transform="matrix(0.008173828125000001,0,0,0.008173828125000001,19.788837890625004,0)" xlink:href="#V"/></g><path d="M678-1118v154H420V0H240v-964H20v-154h220v-149c0-194 155-293 318-293 85 0 141 18 168 30l-50 154c-19-6-47-17-97-17-111 0-159 58-159 166v109h258" id="aE"/><g id="w"><use transform="matrix(0.008173828125000001,0,0,0.008173828125000001,0,0)" xlink:href="#T"/><use transform="matrix(0.008173828125000001,0,0,0.008173828125000001,9.726855468750001,0)" xlink:href="#V"/><use transform="matrix(0.008173828125000001,0,0,0.008173828125000001,19.126757812500003,0)" xlink:href="#am"/><use transform="matrix(0.008173828125000001,0,0,0.008173828125000001,23.180976562500003,0)" xlink:href="#aq"/><use transform="matrix(0.008173828125000001,0,0,0.008173828125000001,27.235195312500004,0)" xlink:href="#aE"/><use transform="matrix(0.008173828125000001,0,0,0.008173828125000001,33.43095703125,0)" xlink:href="#aq"/><use transform="matrix(0.008173828125000001,0,0,0.008173828125000001,37.48517578125001,0)" xlink:href="#T"/><use transform="matrix(0.008173828125000001,0,0,0.008173828125000001,47.21203125000001,0)" xlink:href="#V"/><use transform="matrix(0.008173828125000001,0,0,0.008173828125000001,56.61193359375001,0)" xlink:href="#T"/><use transform="matrix(0.008173828125000001,0,0,0.008173828125000001,66.17531250000002,0)" xlink:href="#aq"/><use transform="matrix(0.008173828125000001,0,0,0.008173828125000001,70.22953125000002,0)" xlink:href="#aB"/><use transform="matrix(0.008173828125000001,0,0,0.008173828125000001,80.26699218750002,0)" xlink:href="#av"/></g><path d="M180 0v-1490h190v644h782v-644h190V0h-190v-678H370V0H180" id="aF"/><g id="x"><use transform="matrix(0.008173828125000001,0,0,0.008173828125000001,0,0)" xlink:href="#aF"/><use transform="matrix(0.008173828125000001,0,0,0.008173828125000001,12.440566406250001,0)" xlink:href="#V"/><use transform="matrix(0.008173828125000001,0,0,0.008173828125000001,21.840468750000003,0)" xlink:href="#T"/><use transform="matrix(0.008173828125000001,0,0,0.008173828125000001,31.403847656250004,0)" xlink:href="#S"/><use transform="matrix(0.008173828125000001,0,0,0.008173828125000001,41.16339843750001,0)" xlink:href="#Y"/></g><g id="y"><use transform="matrix(0.008173828125000001,0,0,0.008173828125000001,0,0)" xlink:href="#R"/><use transform="matrix(0.008173828125000001,0,0,0.008173828125000001,10.249980468750001,0)" xlink:href="#S"/><use transform="matrix(0.008173828125000001,0,0,0.008173828125000001,20.009531250000002,0)" xlink:href="#W"/><use transform="matrix(0.008173828125000001,0,0,0.008173828125000001,30.259511718750005,0)" xlink:href="#aq"/><use transform="matrix(0.008173828125000001,0,0,0.008173828125000001,34.31373046875001,0)" xlink:href="#W"/><use transform="matrix(0.008173828125000001,0,0,0.008173828125000001,44.56371093750001,0)" xlink:href="#X"/></g><path d="M180 0v-1490h510c348 0 508 194 508 460 0 198-88 351-276 417L1256 0h-220L726-579c-117 2-238 0-356 1V0H180zm190-747h312c235 0 327-108 327-283 0-177-92-293-329-293H370v576" id="aG"/><g id="z"><use transform="matrix(0.008173828125000001,0,0,0.008173828125000001,0,0)" xlink:href="#aG"/><use transform="matrix(0.008173828125000001,0,0,0.008173828125000001,10.527890625000001,0)" xlink:href="#S"/><use transform="matrix(0.008173828125000001,0,0,0.008173828125000001,20.287441406250004,0)" xlink:href="#ar"/><use transform="matrix(0.008173828125000001,0,0,0.008173828125000001,30.553769531250005,0)" xlink:href="#aq"/><use transform="matrix(0.008173828125000001,0,0,0.008173828125000001,34.60798828125,0)" xlink:href="#Q"/><use transform="matrix(0.008173828125000001,0,0,0.008173828125000001,43.443896484375,0)" xlink:href="#U"/><use transform="matrix(0.008173828125000001,0,0,0.008173828125000001,48.920361328125004,0)" xlink:href="#Y"/><use transform="matrix(0.008173828125000001,0,0,0.008173828125000001,55.2223828125,0)" xlink:href="#V"/><use transform="matrix(0.008173828125000001,0,0,0.008173828125000001,64.62228515625,0)" xlink:href="#Y"/><use transform="matrix(0.008173828125000001,0,0,0.008173828125000001,70.924306640625,0)" xlink:href="#Q"/><use transform="matrix(0.008173828125000001,0,0,0.008173828125000001,79.76021484375,0)" xlink:href="#S"/></g><path d="M338-670V0H158v-1118h173l1 207c72-158 192-221 342-221 226 0 378 139 378 422V0H872v-695c0-172-96-275-252-275-161 0-282 109-282 300zm398-643c-99 0-192-83-243-83-35 0-51 40-53 79H314c4-120 55-208 162-208 104 0 174 85 241 85 33 0 49-23 56-81h123c-4 126-62 208-160 208" id="aH"/><g id="A"><use transform="matrix(0.008173828125000001,0,0,0.008173828125000001,0,0)" xlink:href="#Y"/><use transform="matrix(0.008173828125000001,0,0,0.008173828125000001,6.0241113281250005,0)" xlink:href="#S"/><use transform="matrix(0.008173828125000001,0,0,0.008173828125000001,15.783662109375001,0)" xlink:href="#Q"/><use transform="matrix(0.008173828125000001,0,0,0.008173828125000001,24.619570312500002,0)" xlink:href="#S"/><use transform="matrix(0.008173828125000001,0,0,0.008173828125000001,34.37912109375,0)" xlink:href="#aH"/><use transform="matrix(0.008173828125000001,0,0,0.008173828125000001,44.269453125,0)" xlink:href="#V"/></g><g id="B"><use transform="matrix(0.008173828125000001,0,0,0.008173828125000001,0,0)" xlink:href="#aF"/><use transform="matrix(0.008173828125000001,0,0,0.008173828125000001,12.440566406250001,0)" xlink:href="#aq"/><use transform="matrix(0.008173828125000001,0,0,0.008173828125000001,16.494785156250003,0)" xlink:href="#Q"/><use transform="matrix(0.008173828125000001,0,0,0.008173828125000001,25.330693359375005,0)" xlink:href="#U"/><use transform="matrix(0.008173828125000001,0,0,0.008173828125000001,30.643681640625005,0)" xlink:href="#X"/><use transform="matrix(0.008173828125000001,0,0,0.008173828125000001,40.681142578125005,0)" xlink:href="#Y"/><use transform="matrix(0.008173828125000001,0,0,0.008173828125000001,47.244726562500006,0)" xlink:href="#aq"/><use transform="matrix(0.008173828125000001,0,0,0.008173828125000001,51.2989453125,0)" xlink:href="#V"/><use transform="matrix(0.008173828125000001,0,0,0.008173828125000001,60.69884765625001,0)" xlink:href="#am"/></g><g id="C"><use transform="matrix(0.008173828125000001,0,0,0.008173828125000001,0,0)" xlink:href="#T"/><use transform="matrix(0.008173828125000001,0,0,0.008173828125000001,9.563378906250001,0)" xlink:href="#X"/><use transform="matrix(0.008173828125000001,0,0,0.008173828125000001,19.600839843750002,0)" xlink:href="#at"/><use transform="matrix(0.008173828125000001,0,0,0.008173828125000001,34.26468750000001,0)" xlink:href="#R"/><use transform="matrix(0.008173828125000001,0,0,0.008173828125000001,44.51466796875001,0)" xlink:href="#Y"/><use transform="matrix(0.008173828125000001,0,0,0.008173828125000001,50.81668945312501,0)" xlink:href="#V"/><use transform="matrix(0.008173828125000001,0,0,0.008173828125000001,60.21659179687501,0)" xlink:href="#Q"/></g><g id="D"><use transform="matrix(0.008173828125000001,0,0,0.008173828125000001,0,0)" xlink:href="#V"/><use transform="matrix(0.008173828125000001,0,0,0.008173828125000001,9.399902343750002,0)" xlink:href="#Q"/><use transform="matrix(0.008173828125000001,0,0,0.008173828125000001,18.235810546875,0)" xlink:href="#aq"/><use transform="matrix(0.008173828125000001,0,0,0.008173828125000001,22.290029296875,0)" xlink:href="#S"/><use transform="matrix(0.008173828125000001,0,0,0.008173828125000001,32.049580078125004,0)" xlink:href="#av"/><use transform="matrix(0.008173828125000001,0,0,0.008173828125000001,41.939912109374994,0)" xlink:href="#U"/><use transform="matrix(0.008173828125000001,0,0,0.008173828125000001,47.252900390625,0)" xlink:href="#X"/></g><path d="M52 0l541-1490h220L1361 0h-200l-149-416H398L254 0H52zm404-582h497c-103-290-145-390-251-756-108 377-145 460-246 756" id="aI"/><path d="M126 0v-134l627-806v-11H146v-167h839v143L376-178v11h629V0H126" id="aJ"/><g id="E"><use transform="matrix(0.008173828125000001,0,0,0.008173828125000001,0,0)" xlink:href="#aI"/><use transform="matrix(0.008173828125000001,0,0,0.008173828125000001,11.549619140625001,0)" xlink:href="#T"/><use transform="matrix(0.008173828125000001,0,0,0.008173828125000001,21.112998046875003,0)" xlink:href="#U"/><use transform="matrix(0.008173828125000001,0,0,0.008173828125000001,26.589462890625004,0)" xlink:href="#ao"/><use transform="matrix(0.008173828125000001,0,0,0.008173828125000001,36.48796875000001,0)" xlink:href="#V"/><use transform="matrix(0.008173828125000001,0,0,0.008173828125000001,45.88787109375001,0)" xlink:href="#am"/><use transform="matrix(0.008173828125000001,0,0,0.008173828125000001,49.94208984375001,0)" xlink:href="#aq"/><use transform="matrix(0.008173828125000001,0,0,0.008173828125000001,53.996308593750015,0)" xlink:href="#aJ"/><use transform="matrix(0.008173828125000001,0,0,0.008173828125000001,63.24090820312502,0)" xlink:href="#V"/><use transform="matrix(0.008173828125000001,0,0,0.008173828125000001,72.64081054687502,0)" xlink:href="#Y"/></g><g id="F"><use transform="matrix(0.008173828125000001,0,0,0.008173828125000001,0,0)" xlink:href="#aI"/><use transform="matrix(0.008173828125000001,0,0,0.008173828125000001,11.549619140625001,0)" xlink:href="#av"/><use transform="matrix(0.008173828125000001,0,0,0.008173828125000001,21.439951171875002,0)" xlink:href="#V"/><use transform="matrix(0.008173828125000001,0,0,0.008173828125000001,30.839853515625002,0)" xlink:href="#am"/><use transform="matrix(0.008173828125000001,0,0,0.008173828125000001,34.894072265625,0)" xlink:href="#aq"/><use transform="matrix(0.008173828125000001,0,0,0.008173828125000001,38.948291015625,0)" xlink:href="#aJ"/><use transform="matrix(0.008173828125000001,0,0,0.008173828125000001,48.192890625000004,0)" xlink:href="#V"/><use transform="matrix(0.008173828125000001,0,0,0.008173828125000001,57.592792968750004,0)" xlink:href="#Y"/></g><g id="G"><use transform="matrix(0.008173828125000001,0,0,0.008173828125000001,0,0)" xlink:href="#U"/><use transform="matrix(0.008173828125000001,0,0,0.008173828125000001,5.312988281250001,0)" xlink:href="#S"/><use transform="matrix(0.008173828125000001,0,0,0.008173828125000001,15.072539062500002,0)" xlink:href="#av"/><use transform="matrix(0.008173828125000001,0,0,0.008173828125000001,24.962871093750003,0)" xlink:href="#W"/><use transform="matrix(0.008173828125000001,0,0,0.008173828125000001,35.212851562500006,0)" xlink:href="#S"/><use transform="matrix(0.008173828125000001,0,0,0.008173828125000001,44.972402343750005,0)" xlink:href="#T"/><use transform="matrix(0.008173828125000001,0,0,0.008173828125000001,54.53578125000001,0)" xlink:href="#aq"/><use transform="matrix(0.008173828125000001,0,0,0.008173828125000001,58.59,0)" xlink:href="#V"/><use transform="matrix(0.008173828125000001,0,0,0.008173828125000001,67.98990234375,0)" xlink:href="#Q"/></g></defs></g></svg>